<?xml version="1.0" encoding="UTF-8"?>
<svg xmlns="http://www.w3.org/2000/svg" xmlns:xlink="http://www.w3.org/1999/xlink" width="38px" height="28px" viewBox="0 0 38 28" version="1.1">
<g id="surface1">
<path style=" stroke:none;fill-rule:evenodd;fill:rgb(57.254902%,50.196078%,50.196078%);fill-opacity:1;" d="M -0.0664062 -0.0703125 C 12.597656 -0.0703125 25.265625 -0.0703125 37.933594 -0.0703125 C 37.933594 9.265625 37.933594 18.597656 37.933594 27.929688 C 25.265625 27.929688 12.597656 27.929688 -0.0664062 27.929688 C -0.0664062 18.597656 -0.0664062 9.265625 -0.0664062 -0.0703125 Z M -0.0664062 -0.0703125 "/>
<path style=" stroke:none;fill-rule:evenodd;fill:rgb(5.490196%,4.705882%,4.705882%);fill-opacity:1;" d="M 18.933594 0.484375 C 19.15625 0.453125 19.363281 0.5 19.546875 0.621094 C 19.613281 1.632812 19.636719 2.644531 19.613281 3.65625 C 19.296875 3.65625 18.976562 3.65625 18.660156 3.65625 C 18.636719 2.6875 18.660156 1.722656 18.726562 0.757812 C 18.824219 0.683594 18.894531 0.589844 18.933594 0.484375 Z M 18.933594 0.484375 "/>
<path style=" stroke:none;fill-rule:evenodd;fill:rgb(3.137255%,2.745098%,2.745098%);fill-opacity:1;" d="M 20.023438 6.277344 C 19.476562 6.277344 18.933594 6.277344 18.386719 6.277344 C 18.386719 5.679688 18.386719 5.082031 18.386719 4.484375 C 18.894531 4.300781 19.417969 4.300781 19.957031 4.484375 C 20.023438 5.078125 20.046875 5.675781 20.023438 6.277344 Z M 20.023438 6.277344 "/>
<path style=" stroke:none;fill-rule:evenodd;fill:rgb(21.568627%,18.823529%,18.823529%);fill-opacity:1;" d="M 18.386719 4.484375 C 18.386719 5.082031 18.386719 5.679688 18.386719 6.277344 C 18.933594 6.277344 19.476562 6.277344 20.023438 6.277344 C 19.460938 6.410156 18.867188 6.457031 18.25 6.414062 C 18.203125 5.742188 18.25 5.097656 18.386719 4.484375 Z M 18.386719 4.484375 "/>
<path style=" stroke:none;fill-rule:evenodd;fill:rgb(5.098039%,4.705882%,4.705882%);fill-opacity:1;" d="M 10.320312 6.277344 C 11.222656 6.078125 11.953125 6.328125 12.507812 7.035156 C 9.265625 6.863281 6.828125 8.171875 5.195312 10.964844 C 5.101562 11.242188 5.011719 11.515625 4.921875 11.792969 C 4.851562 10.164062 5.46875 8.851562 6.765625 7.863281 C 7.832031 7.042969 9.015625 6.515625 10.320312 6.277344 Z M 10.320312 6.277344 "/>
<path style=" stroke:none;fill-rule:evenodd;fill:rgb(4.705882%,3.921569%,3.921569%);fill-opacity:1;" d="M 26.449219 6.277344 C 28.742188 6.289062 30.726562 7.070312 32.394531 8.621094 C 33.105469 9.40625 33.425781 10.328125 33.351562 11.378906 C 32.1875 8.988281 30.296875 7.585938 27.679688 7.171875 C 27.085938 7.125 26.496094 7.082031 25.902344 7.035156 C 26.0625 6.757812 26.246094 6.507812 26.449219 6.277344 Z M 26.449219 6.277344 "/>
<path style=" stroke:none;fill-rule:evenodd;fill:rgb(0.784314%,0.392157%,0.392157%);fill-opacity:1;" d="M 14.832031 7.101562 C 17.65625 7.082031 20.480469 7.101562 23.304688 7.171875 C 23.417969 7.289062 23.535156 7.402344 23.648438 7.515625 C 23.773438 8.953125 23.726562 10.378906 23.511719 11.792969 C 23.410156 11.878906 23.292969 11.949219 23.167969 12 C 20.433594 12.09375 17.703125 12.09375 14.96875 12 C 14.835938 11.804688 14.722656 11.597656 14.625 11.378906 C 14.535156 10.09375 14.535156 8.804688 14.625 7.515625 C 14.695312 7.375 14.765625 7.238281 14.832031 7.101562 Z M 14.832031 7.101562 "/>
<path style=" stroke:none;fill-rule:evenodd;fill:rgb(5.490196%,4.705882%,4.705882%);fill-opacity:1;" d="M 12.644531 7.929688 C 12.871094 7.929688 13.097656 7.929688 13.328125 7.929688 C 13.328125 8.390625 13.328125 8.851562 13.328125 9.308594 C 13.058594 9.34375 12.808594 9.296875 12.574219 9.171875 C 12.476562 8.746094 12.496094 8.332031 12.644531 7.929688 Z M 12.644531 7.929688 "/>
<path style=" stroke:none;fill-rule:evenodd;fill:rgb(4.313725%,3.529412%,3.529412%);fill-opacity:1;" d="M 25.082031 7.929688 C 25.3125 7.929688 25.539062 7.929688 25.765625 7.929688 C 25.765625 8.390625 25.765625 8.851562 25.765625 9.308594 C 25.496094 9.34375 25.246094 9.296875 25.015625 9.171875 C 24.914062 8.746094 24.9375 8.332031 25.082031 7.929688 Z M 25.082031 7.929688 "/>
<path style=" stroke:none;fill-rule:evenodd;fill:rgb(35.686275%,31.372549%,31.372549%);fill-opacity:1;" d="M 30.414062 9.035156 C 29.761719 8.824219 29.125 8.570312 28.5 8.277344 C 29.242188 8.261719 29.878906 8.511719 30.414062 9.035156 Z M 30.414062 9.035156 "/>
<path style=" stroke:none;fill-rule:evenodd;fill:rgb(36.470588%,31.764706%,31.764706%);fill-opacity:1;" d="M 30.414062 9.035156 C 30.691406 9.109375 30.921875 9.269531 31.097656 9.515625 C 30.785156 9.507812 30.558594 9.347656 30.414062 9.035156 Z M 30.414062 9.035156 "/>
<path style=" stroke:none;fill-rule:evenodd;fill:rgb(3.529412%,2.745098%,2.745098%);fill-opacity:1;" d="M 28.226562 9.449219 C 29.425781 9.4375 29.699219 9.917969 29.046875 10.898438 C 28.34375 11.128906 27.933594 10.875 27.816406 10.136719 C 27.898438 9.871094 28.035156 9.644531 28.226562 9.449219 Z M 28.226562 9.449219 "/>
<path style=" stroke:none;fill-rule:evenodd;fill:rgb(3.529412%,3.137255%,3.137255%);fill-opacity:1;" d="M 9.226562 9.449219 C 10.320312 9.289062 10.707031 9.75 10.386719 10.828125 C 9.933594 11.5625 9.476562 11.5625 9.023438 10.828125 C 8.890625 10.324219 8.957031 9.863281 9.226562 9.449219 Z M 9.226562 9.449219 "/>
<path style=" stroke:none;fill-rule:evenodd;fill:rgb(4.705882%,3.921569%,3.921569%);fill-opacity:1;" d="M 26.3125 11.101562 C 27.175781 11.078125 27.519531 11.492188 27.339844 12.34375 C 26.921875 12.828125 26.464844 12.875 25.972656 12.484375 C 25.816406 11.941406 25.929688 11.480469 26.3125 11.101562 Z M 26.3125 11.101562 "/>
<path style=" stroke:none;fill-rule:evenodd;fill:rgb(4.313725%,3.529412%,3.529412%);fill-opacity:1;" d="M 30.277344 11.101562 C 31.148438 11.085938 31.488281 11.5 31.300781 12.34375 C 31.007812 12.730469 30.617188 12.84375 30.140625 12.691406 C 29.746094 12.113281 29.792969 11.585938 30.277344 11.101562 Z M 30.277344 11.101562 "/>
<path style=" stroke:none;fill-rule:evenodd;fill:rgb(3.137255%,2.745098%,2.745098%);fill-opacity:1;" d="M 7.449219 11.242188 C 8.09375 11.109375 8.617188 11.292969 9.023438 11.792969 C 8.886719 12.699219 8.363281 13 7.449219 12.691406 C 6.910156 12.195312 6.910156 11.714844 7.449219 11.242188 Z M 7.449219 11.242188 "/>
<path style=" stroke:none;fill-rule:evenodd;fill:rgb(4.705882%,4.313725%,4.313725%);fill-opacity:1;" d="M 10.730469 11.242188 C 11.144531 11.21875 11.554688 11.242188 11.960938 11.308594 C 12.488281 11.757812 12.488281 12.21875 11.960938 12.691406 C 11.179688 12.933594 10.589844 12.703125 10.183594 12 C 10.339844 11.726562 10.523438 11.472656 10.730469 11.242188 Z M 10.730469 11.242188 "/>
<path style=" stroke:none;fill-rule:evenodd;fill:rgb(2.745098%,2.352941%,2.352941%);fill-opacity:1;" d="M 9.5 12.621094 C 10.472656 12.890625 10.699219 13.464844 10.183594 14.34375 C 9.160156 14.597656 8.769531 14.207031 9.023438 13.171875 C 9.210938 13.007812 9.367188 12.824219 9.5 12.621094 Z M 9.5 12.621094 "/>
<path style=" stroke:none;fill-rule:evenodd;fill:rgb(5.490196%,4.705882%,4.705882%);fill-opacity:1;" d="M 13.601562 13.035156 C 16 12.996094 16.980469 14.144531 16.539062 16.484375 C 15.832031 17.804688 14.761719 18.242188 13.328125 17.792969 C 11.753906 16.757812 11.457031 15.449219 12.4375 13.863281 C 12.800781 13.53125 13.1875 13.257812 13.601562 13.035156 Z M 13.601562 13.035156 "/>
<path style=" stroke:none;fill-rule:evenodd;fill:rgb(4.313725%,3.529412%,3.529412%);fill-opacity:1;" d="M 23.304688 13.035156 C 25.449219 12.921875 26.472656 13.933594 26.382812 16.070312 C 25.921875 17.507812 24.941406 18.128906 23.441406 17.929688 C 21.917969 17.316406 21.351562 16.191406 21.734375 14.550781 C 22.0625 13.828125 22.585938 13.320312 23.304688 13.035156 Z M 23.304688 13.035156 "/>
<path style=" stroke:none;fill-rule:evenodd;fill:rgb(4.313725%,3.921569%,3.921569%);fill-opacity:1;" d="M 28.226562 12.898438 C 29.363281 12.867188 29.679688 13.347656 29.183594 14.34375 C 28.449219 14.753906 27.992188 14.546875 27.816406 13.722656 C 27.882812 13.40625 28.019531 13.132812 28.226562 12.898438 Z M 28.226562 12.898438 "/>
<path style=" stroke:none;fill-rule:evenodd;fill:rgb(3.921569%,3.529412%,3.529412%);fill-opacity:1;" d="M 5.398438 16.207031 C 5.203125 16.484375 5.113281 16.804688 5.125 17.171875 C 4.832031 18.175781 4.535156 19.1875 4.238281 20.207031 C 4.144531 20.804688 4.144531 21.402344 4.238281 22 C 4.261719 22.304688 4.351562 22.582031 4.511719 22.828125 C 4.777344 21.601562 5.230469 20.453125 5.878906 19.378906 C 4.648438 24.863281 6.015625 25.644531 9.976562 21.722656 C 10.296875 21.308594 10.617188 20.898438 10.933594 20.484375 C 10.574219 22.257812 9.6875 23.707031 8.269531 24.828125 C 5.8125 26.035156 4.148438 25.324219 3.28125 22.691406 C 3.1875 21.953125 3.1875 21.21875 3.28125 20.484375 C 3.921875 17.941406 4.605469 15.414062 5.332031 12.898438 C 5.515625 13.386719 5.722656 13.871094 5.945312 14.34375 C 5.667969 14.9375 5.484375 15.558594 5.398438 16.207031 Z M 5.398438 16.207031 "/>
<path style=" stroke:none;fill-rule:evenodd;fill:rgb(3.921569%,3.529412%,3.529412%);fill-opacity:1;" d="M 33.96875 22.691406 C 34.066406 22.632812 34.132812 22.539062 34.171875 22.414062 C 34.285156 21.652344 34.261719 20.917969 34.105469 20.207031 C 33.667969 18.449219 33.191406 16.703125 32.667969 14.964844 C 32.613281 14.167969 32.703125 13.386719 32.941406 12.621094 C 33.738281 15.167969 34.46875 17.742188 35.128906 20.34375 C 35.445312 22.191406 34.921875 23.730469 33.558594 24.964844 C 31.738281 25.785156 30.210938 25.394531 28.976562 23.792969 C 28.222656 22.757812 27.742188 21.675781 27.542969 20.550781 C 28.484375 22.175781 29.804688 23.371094 31.507812 24.136719 C 32.265625 24.339844 32.699219 24.039062 32.804688 23.242188 C 32.828125 22.851562 32.851562 22.460938 32.875 22.070312 C 32.855469 21.195312 32.742188 20.34375 32.53125 19.515625 C 33.230469 20.574219 33.707031 21.632812 33.96875 22.691406 Z M 33.96875 22.691406 "/>
<path style=" stroke:none;fill-rule:evenodd;fill:rgb(8.627451%,7.843137%,7.843137%);fill-opacity:1;" d="M 17.429688 13.449219 C 17.839844 13.402344 18.019531 13.585938 17.976562 14 C 17.746094 14 17.519531 14 17.292969 14 C 17.28125 13.796875 17.328125 13.613281 17.429688 13.449219 Z M 17.429688 13.449219 "/>
<path style=" stroke:none;fill-rule:evenodd;fill:rgb(7.843137%,7.058824%,7.058824%);fill-opacity:1;" d="M 20.296875 13.449219 C 20.800781 13.425781 20.9375 13.632812 20.707031 14.070312 C 20.578125 14.152344 20.464844 14.132812 20.367188 14 C 20.300781 13.820312 20.277344 13.636719 20.296875 13.449219 Z M 20.296875 13.449219 "/>
<path style=" stroke:none;fill-rule:evenodd;fill:rgb(8.627451%,7.843137%,7.843137%);fill-opacity:1;" d="M 18.933594 13.449219 C 19.339844 13.402344 19.523438 13.585938 19.476562 14 C 19.25 14 19.023438 14 18.796875 14 C 18.785156 13.796875 18.832031 13.613281 18.933594 13.449219 Z M 18.933594 13.449219 "/>
<path style=" stroke:none;fill-rule:evenodd;fill:rgb(54.117647%,47.45098%,47.45098%);fill-opacity:1;" d="M 13.601562 13.722656 C 15.429688 13.570312 16.179688 14.394531 15.855469 16.207031 C 15.5 16.847656 14.953125 17.167969 14.214844 17.171875 C 13.46875 17.140625 12.964844 16.773438 12.710938 16.070312 C 12.410156 15.035156 12.707031 14.253906 13.601562 13.722656 Z M 13.601562 13.722656 "/>
<path style=" stroke:none;fill-rule:evenodd;fill:rgb(53.72549%,47.058824%,47.058824%);fill-opacity:1;" d="M 23.304688 13.722656 C 24.390625 13.480469 25.1875 13.847656 25.699219 14.828125 C 25.855469 16.503906 25.105469 17.265625 23.441406 17.101562 C 22.476562 16.585938 22.136719 15.78125 22.417969 14.691406 C 22.648438 14.296875 22.945312 13.972656 23.304688 13.722656 Z M 23.304688 13.722656 "/>
<path style=" stroke:none;fill-rule:evenodd;fill:rgb(5.490196%,5.098039%,5.098039%);fill-opacity:1;" d="M 18.113281 14.277344 C 18.292969 14.277344 18.476562 14.277344 18.660156 14.277344 C 18.695312 14.53125 18.605469 14.714844 18.386719 14.828125 C 18.164062 14.714844 18.074219 14.53125 18.113281 14.277344 Z M 18.113281 14.277344 "/>
<path style=" stroke:none;fill-rule:evenodd;fill:rgb(9.411765%,8.627451%,8.235294%);fill-opacity:1;" d="M 19.476562 14.277344 C 19.707031 14.277344 19.933594 14.277344 20.160156 14.277344 C 20.183594 14.78125 19.976562 14.917969 19.546875 14.691406 C 19.480469 14.558594 19.457031 14.421875 19.476562 14.277344 Z M 19.476562 14.277344 "/>
<path style=" stroke:none;fill-rule:evenodd;fill:rgb(4.313725%,3.921569%,3.921569%);fill-opacity:1;" d="M 13.875 14.277344 C 15.023438 14.308594 15.457031 14.859375 15.171875 15.929688 C 14.34375 16.734375 13.703125 16.59375 13.257812 15.515625 C 13.242188 14.996094 13.449219 14.582031 13.875 14.277344 Z M 13.875 14.277344 "/>
<path style=" stroke:none;fill-rule:evenodd;fill:rgb(4.313725%,3.529412%,3.529412%);fill-opacity:1;" d="M 23.578125 14.277344 C 25.042969 14.355469 25.40625 15.019531 24.671875 16.277344 C 23.425781 16.628906 22.902344 16.144531 23.101562 14.828125 C 23.289062 14.660156 23.449219 14.476562 23.578125 14.277344 Z M 23.578125 14.277344 "/>
<path style=" stroke:none;fill-rule:evenodd;fill:rgb(3.529412%,3.137255%,3.137255%);fill-opacity:1;" d="M 18.796875 15.65625 C 19.851562 15.566406 20.125 15.980469 19.613281 16.898438 C 18.511719 17.085938 18.238281 16.671875 18.796875 15.65625 Z M 18.796875 15.65625 "/>
<path style=" stroke:none;fill-rule:evenodd;fill:rgb(36.470588%,31.764706%,31.764706%);fill-opacity:1;" d="M 5.398438 16.207031 C 5.410156 16.574219 5.320312 16.894531 5.125 17.171875 C 5.113281 16.804688 5.203125 16.484375 5.398438 16.207031 Z M 5.398438 16.207031 "/>
<path style=" stroke:none;fill-rule:evenodd;fill:rgb(4.705882%,3.921569%,3.921569%);fill-opacity:1;" d="M 30.277344 26 C 30.132812 26.128906 29.949219 26.175781 29.730469 26.136719 C 28.164062 25.6875 27.09375 24.675781 26.519531 23.101562 C 26.226562 22.265625 25.90625 21.4375 25.5625 20.621094 C 25.347656 20.363281 25.097656 20.15625 24.808594 20 C 22.90625 19.84375 20.992188 19.773438 19.066406 19.792969 C 17.1875 19.773438 15.320312 19.839844 13.464844 20 C 13.246094 20.144531 13.042969 20.304688 12.847656 20.484375 C 12.414062 21.886719 11.824219 23.222656 11.070312 24.484375 C 10.363281 25.449219 9.429688 26 8.269531 26.136719 C 8.132812 26.160156 8.042969 26.117188 7.996094 26 C 8.800781 25.648438 9.507812 25.144531 10.113281 24.484375 C 10.972656 23.210938 11.613281 21.832031 12.027344 20.34375 C 12.433594 19.691406 13.003906 19.253906 13.738281 19.035156 C 17.335938 18.941406 20.9375 18.941406 24.535156 19.035156 C 25.304688 19.210938 25.871094 19.648438 26.246094 20.34375 C 26.707031 21.695312 27.296875 22.980469 28.023438 24.207031 C 28.585938 25.054688 29.335938 25.652344 30.277344 26 Z M 30.277344 26 "/>
<path style=" stroke:none;fill-rule:evenodd;fill:rgb(37.647059%,32.941176%,32.941176%);fill-opacity:1;" d="M 34.105469 20.207031 C 34.261719 20.917969 34.285156 21.652344 34.171875 22.414062 C 34.132812 22.539062 34.066406 22.632812 33.96875 22.691406 C 34.085938 21.867188 34.132812 21.039062 34.105469 20.207031 Z M 34.105469 20.207031 "/>
<path style=" stroke:none;fill-rule:evenodd;fill:rgb(30.980392%,27.45098%,27.45098%);fill-opacity:1;" d="M 7.996094 26 C 8.042969 26.117188 8.132812 26.160156 8.269531 26.136719 C 8.023438 26.292969 7.75 26.316406 7.449219 26.207031 C 7.59375 26.042969 7.777344 25.972656 7.996094 26 Z M 7.996094 26 "/>
<path style=" stroke:none;fill-rule:evenodd;fill:rgb(32.941176%,29.019608%,29.019608%);fill-opacity:1;" d="M 30.277344 26 C 30.480469 25.964844 30.660156 26.011719 30.824219 26.136719 C 30.441406 26.316406 30.074219 26.316406 29.730469 26.136719 C 29.949219 26.175781 30.132812 26.128906 30.277344 26 Z M 30.277344 26 "/>
</g>
</svg>
