<?xml version="1.0" encoding="UTF-8"?>
<svg xmlns="http://www.w3.org/2000/svg" xmlns:xlink="http://www.w3.org/1999/xlink" width="px" height="28px" viewBox="0 0 28 28" version="1.1">
<g id="surface1">
<path style=" stroke:none;fill-rule:nonzero;fill:rgb(0%,0%,0%);fill-opacity:1;" d="M 14 27.371094 L 12.988281 26.660156 C 11.660156 25.71875 0 17.246094 0 9.507812 C -0.15625 4.996094 3.363281 1.203125 7.875 1.019531 C 10.300781 1.042969 12.574219 2.214844 14 4.179688 C 15.425781 2.214844 17.699219 1.042969 20.125 1.019531 C 24.636719 1.203125 28.15625 4.996094 28 9.507812 C 28 17.246094 16.339844 25.71875 15.011719 26.660156 Z M 7.875 4.519531 C 5.296875 4.703125 3.34375 6.929688 3.5 9.507812 C 3.5 14.078125 10.339844 20.253906 14 23.054688 C 17.660156 20.253906 24.5 14.078125 24.5 9.507812 C 24.65625 6.929688 22.703125 4.703125 20.125 4.519531 C 17.546875 4.703125 15.59375 6.929688 15.75 9.507812 L 12.25 9.507812 C 12.40625 6.929688 10.453125 4.703125 7.875 4.519531 Z M 7.875 4.519531 "/>
</g>
</svg>
