<?xml version="1.0" encoding="UTF-8"?>
<svg xmlns="http://www.w3.org/2000/svg" xmlns:xlink="http://www.w3.org/1999/xlink" width="px" height="28px" viewBox="0 0 28 28" version="1.1">
<g id="surface1">
<path style=" stroke:none;fill-rule:nonzero;fill:rgb(0%,0%,0%);fill-opacity:1;" d="M 10.5 25.667969 C 10.5 26.957031 9.457031 28 8.167969 28 C 6.878906 28 5.832031 26.957031 5.832031 25.667969 C 5.832031 24.378906 6.878906 23.332031 8.167969 23.332031 C 9.457031 23.332031 10.5 24.378906 10.5 25.667969 Z M 10.5 25.667969 "/>
<path style=" stroke:none;fill-rule:nonzero;fill:rgb(0%,0%,0%);fill-opacity:1;" d="M 22.167969 25.667969 C 22.167969 26.957031 21.121094 28 19.832031 28 C 18.542969 28 17.5 26.957031 17.5 25.667969 C 17.5 24.378906 18.542969 23.332031 19.832031 23.332031 C 21.121094 23.332031 22.167969 24.378906 22.167969 25.667969 Z M 22.167969 25.667969 "/>
<path style=" stroke:none;fill-rule:nonzero;fill:rgb(0%,0%,0%);fill-opacity:1;" d="M 26.816406 7.019531 C 25.992188 6.234375 24.894531 5.808594 23.757812 5.832031 L 6.597656 5.832031 L 6.289062 3.425781 C 6.058594 1.472656 4.402344 0 2.433594 0 L 1.75 0 C 0.785156 0 0 0.785156 0 1.75 C 0 2.714844 0.785156 3.5 1.75 3.5 L 2.433594 3.5 C 2.632812 3.503906 2.796875 3.652344 2.816406 3.851562 L 4.566406 17.570312 C 4.792969 19.523438 6.449219 21 8.417969 21 L 20.230469 21 C 23.117188 21 25.648438 19.070312 26.414062 16.285156 L 27.867188 11 C 28.261719 9.578125 27.859375 8.058594 26.816406 7.019531 Z M 23.042969 15.355469 C 22.691406 16.621094 21.539062 17.496094 20.230469 17.5 L 8.417969 17.5 C 8.222656 17.5 8.058594 17.347656 8.039062 17.148438 L 7.042969 9.332031 L 23.933594 9.332031 C 24.117188 9.332031 24.289062 9.417969 24.398438 9.5625 C 24.511719 9.707031 24.546875 9.894531 24.5 10.070312 Z M 23.042969 15.355469 "/>
</g>
</svg>
