<?xml version="1.0" encoding="UTF-8"?>
<svg xmlns="http://www.w3.org/2000/svg" xmlns:xlink="http://www.w3.org/1999/xlink" width="px" height="28px" viewBox="0 0 28 28" version="1.1">
<g id="surface1">
<path style=" stroke:none;fill-rule:nonzero;fill:rgb(0%,0%,0%);fill-opacity:1;" d="M 13.359375 16.355469 C 8.390625 16.804688 4.601562 21.003906 4.667969 25.996094 L 4.667969 26.25 C 4.667969 27.214844 5.449219 28 6.417969 28 C 7.382812 28 8.167969 27.214844 8.167969 26.25 L 8.167969 25.925781 C 8.113281 22.863281 10.375 20.25 13.417969 19.859375 C 16.625 19.542969 19.488281 21.886719 19.804688 25.097656 C 19.824219 25.285156 19.832031 25.476562 19.832031 25.667969 L 19.832031 26.25 C 19.832031 27.214844 20.617188 28 21.582031 28 C 22.550781 28 23.332031 27.214844 23.332031 26.25 L 23.332031 25.667969 C 23.328125 20.507812 19.140625 16.328125 13.980469 16.332031 C 13.773438 16.332031 13.566406 16.339844 13.359375 16.355469 Z M 13.359375 16.355469 "/>
<path style=" stroke:none;fill-rule:nonzero;fill:rgb(0%,0%,0%);fill-opacity:1;" d="M 14 14 C 17.867188 14 21 10.867188 21 7 C 21 3.132812 17.867188 0 14 0 C 10.132812 0 7 3.132812 7 7 C 7.003906 10.863281 10.136719 13.996094 14 14 Z M 14 3.5 C 15.933594 3.5 17.5 5.066406 17.5 7 C 17.5 8.933594 15.933594 10.5 14 10.5 C 12.066406 10.5 10.5 8.933594 10.5 7 C 10.5 5.066406 12.066406 3.5 14 3.5 Z M 14 3.5 "/>
</g>
</svg>
